<svg preserveAspectRatio="none" width="100%" height="100%" overflow="visible" style="display: block;" viewBox="0 0 20.3342 20" fill="none" xmlns="http://www.w3.org/2000/svg">
<g id="logo-youtube">
<path id="Subtract" fill-rule="evenodd" clip-rule="evenodd" d="M10.3276 3.33351C10.3276 3.33351 16.5746 3.33358 18.1369 3.74692C19.0003 3.97946 19.6735 4.66439 19.902 5.52996C20.3194 7.09991 20.3341 10.349 20.3342 10.3745C20.3342 10.3745 20.334 13.6557 19.9151 15.2191C19.6865 16.0846 18.8864 16.7956 18.023 17.0282C16.4611 17.4416 10.3276 17.4155 10.3276 17.4155C10.2842 17.4158 4.18982 17.4529 2.63315 17.0282C1.78239 16.7956 0.944395 16.0847 0.715831 15.2191C0.401602 14.0369 0.343899 11.9031 0.334972 10.91V9.83904C0.343909 8.84575 0.401587 6.71195 0.715831 5.52996C0.944426 4.66441 1.76972 3.95342 2.63315 3.72088C4.18992 3.30903 10.284 3.33333 10.3276 3.33351ZM8.41033 13.5012L13.4006 10.3745L8.41033 7.24789V13.5012Z" fill="var(--fill-0, #E5E6E3)"/>
</g>
</svg>
