<svg preserveAspectRatio="none" width="100%" height="100%" overflow="visible" style="display: block;" viewBox="0 0 18 18" fill="none" xmlns="http://www.w3.org/2000/svg">
<g id="LinkedIn_icon 1" clip-path="url(#clip0_36_260)">
<path id="Subtract" d="M16 0C17.1046 0 18 0.89543 18 2V16C18 17.1046 17.1046 18 16 18H2C0.89543 18 0 17.1046 0 16V2C0 0.89543 0.89543 0 2 0H16ZM2.75781 15.5H5.44238V6.83301H2.75781V15.5ZM12.3457 6.56836C10.5066 6.56836 9.73242 8.00098 9.73242 8.00098V6.83301H7.1582V15.5H9.73242V10.9502C9.73252 9.73139 10.2942 9.00586 11.3682 9.00586C12.355 9.00607 12.829 9.70325 12.8291 10.9502V15.5H15.5V10.0127C15.5 7.69109 14.1839 6.56837 12.3457 6.56836ZM4.08691 2.5C3.2103 2.50025 2.5 3.2166 2.5 4.09961C2.5002 4.98245 3.21042 5.698 4.08691 5.69824C4.96361 5.69824 5.67363 4.9826 5.67383 4.09961C5.67383 3.21645 4.96374 2.5 4.08691 2.5Z" fill="var(--fill-0, #E5E6E3)"/>
</g>
<defs>
<clipPath id="clip0_36_260">
<rect width="18" height="18" fill="white"/>
</clipPath>
</defs>
</svg>
