<svg preserveAspectRatio="none" width="100%" height="100%" overflow="visible" style="display: block;" viewBox="0 0 16.2529 18" fill="none" xmlns="http://www.w3.org/2000/svg">
<g id="threads-logo-white 1" clip-path="url(#clip0_36_257)">
<path id="Vector" d="M13.0102 8.32373C12.9874 5.7144 11.5512 4.14198 9.12547 4.14198C7.50634 4.14198 6.1446 4.86331 5.42936 6.01301L6.99698 7.08952C7.40315 6.45835 7.96386 5.93416 8.99374 5.93416C10.1552 5.93416 10.7559 6.57098 10.9275 7.75445C10.3668 7.66994 9.80609 7.62486 9.22832 7.62486C6.09292 7.62486 4.61684 9.02261 4.61684 10.871C4.61684 12.7194 6.09292 13.858 8.26718 13.858C10.6531 13.858 12.0776 12.2744 12.6613 10.313C13.2678 10.5835 13.6854 11.2147 13.6854 12.1616C13.6854 14.6978 10.7161 16.0785 8.19862 16.0785C4.48545 16.0785 2.05954 13.6777 2.05954 9.77222C2.05954 4.98741 5.26926 1.92159 9.58316 1.92159C12.4782 1.92159 13.9085 3.17277 14.8812 4.85216L16.4832 3.74754C15.4246 1.57207 13.0617 0.0166168 9.51442 0.0166168C3.86158 0.0166168 0.0168457 3.9673 0.0168457 9.69885C0.0168457 14.9401 3.78152 17.9833 8.26718 17.9833C11.9746 17.9833 15.7222 15.8531 15.7222 12.2067C15.7222 10.3019 14.6123 9.03941 13.0102 8.32373ZM8.19845 11.9587C7.38035 11.9587 6.65937 11.5754 6.65937 10.871C6.65937 9.76074 8.04391 9.4227 9.39991 9.4227C9.91485 9.4227 10.4183 9.45647 10.8645 9.55229C10.5441 10.995 9.5943 11.9588 8.19828 11.9588L8.19845 11.9587Z" fill="var(--fill-0, #E5E6E3)"/>
</g>
<defs>
<clipPath id="clip0_36_257">
<rect width="16.2529" height="18" fill="white"/>
</clipPath>
</defs>
</svg>
