<svg preserveAspectRatio="none" width="100%" height="100%" overflow="visible" style="display: block;" viewBox="0 0 17.9998 17.9999" fill="none" xmlns="http://www.w3.org/2000/svg">
<path id="Vector" d="M5.27258 0.0629438C4.31498 0.108124 3.66103 0.260944 3.08935 0.485584C2.49769 0.716164 1.99621 1.02558 1.49725 1.52634C0.998295 2.0271 0.691035 2.52894 0.462075 3.1215C0.240495 3.69444 0.0903746 4.34892 0.0480746 5.30706C0.0057746 6.2652 -0.00358541 6.57318 0.00109459 9.01722C0.00577459 11.4613 0.0165746 11.7676 0.0630146 12.7277C0.108735 13.6852 0.261015 14.3389 0.485655 14.9108C0.716595 15.5024 1.02565 16.0037 1.52659 16.5029C2.02753 17.002 2.52901 17.3086 3.12301 17.5379C3.69541 17.7591 4.35008 17.9099 5.30804 17.9519C6.266 17.9938 6.57434 18.0035 9.01766 17.9989C11.461 17.9942 11.7686 17.9834 12.7285 17.9378C13.6885 17.8923 14.3388 17.7389 14.9109 17.5154C15.5025 17.2839 16.0042 16.9754 16.503 16.4743C17.0017 15.9731 17.3088 15.4709 17.5376 14.878C17.7594 14.3056 17.91 13.651 17.9516 12.6937C17.9935 11.7331 18.0034 11.4263 17.9988 8.98266C17.9941 6.53898 17.9831 6.23262 17.9376 5.27286C17.892 4.3131 17.7396 3.66132 17.5151 3.0891C17.2838 2.49744 16.9751 1.9965 16.4743 1.497C15.9736 0.997504 15.471 0.690604 14.8783 0.462364C14.3055 0.240784 13.6512 0.0897638 12.6933 0.0483638C11.7353 0.00696385 11.427 -0.00365615 8.98274 0.00102385C6.53852 0.00570385 6.23252 0.0161439 5.27258 0.0629438ZM5.3777 16.3328C4.5002 16.2946 4.02373 16.1488 3.70621 16.0268C3.28573 15.8648 2.98621 15.6689 2.66977 15.3556C2.35333 15.0422 2.15893 14.7416 1.99477 14.322C1.87147 14.0045 1.72297 13.5286 1.68193 12.6511C1.63729 11.7026 1.62793 11.4179 1.62271 9.01506C1.61749 6.61224 1.62667 6.32784 1.66825 5.37906C1.70569 4.50228 1.85239 4.02528 1.97425 3.70794C2.13625 3.28692 2.33137 2.98794 2.64547 2.67168C2.95957 2.35542 3.25927 2.16066 3.67921 1.9965C3.99637 1.87266 4.4723 1.72542 5.34944 1.68366C6.29858 1.63866 6.58298 1.62966 8.98544 1.62444C11.3879 1.61922 11.673 1.62822 12.6225 1.66998C13.4993 1.70814 13.9765 1.8534 14.2935 1.97598C14.7141 2.13798 15.0135 2.33256 15.3297 2.6472C15.646 2.96184 15.8409 3.26046 16.0051 3.6813C16.1291 3.99756 16.2763 4.4733 16.3177 5.35098C16.3629 6.30012 16.3732 6.5847 16.3775 8.98698C16.3818 11.3893 16.3734 11.6746 16.3318 12.623C16.2934 13.5005 16.148 13.9771 16.0258 14.295C15.8638 14.7153 15.6685 15.015 15.3542 15.3311C15.0399 15.6472 14.7406 15.8419 14.3205 16.0061C14.0037 16.1297 13.5272 16.2773 12.6508 16.3191C11.7016 16.3637 11.4172 16.3731 9.01388 16.3783C6.61051 16.3835 6.32702 16.3738 5.37787 16.3328M12.7147 4.1898C12.715 4.40342 12.7787 4.61214 12.8977 4.78955C13.0167 4.96697 13.1856 5.10511 13.3831 5.18651C13.5806 5.26792 13.7978 5.28892 14.0073 5.24687C14.2167 5.20482 14.409 5.1016 14.5597 4.95028C14.7105 4.79895 14.813 4.60631 14.8543 4.39671C14.8956 4.18712 14.8738 3.96999 14.7917 3.77279C14.7095 3.57559 14.5708 3.40717 14.3929 3.28884C14.2151 3.17051 14.0061 3.10758 13.7925 3.108C13.5061 3.10858 13.2317 3.22286 13.0296 3.42573C12.8275 3.62859 12.7142 3.90343 12.7147 4.1898ZM4.37887 9.00894C4.38391 11.5613 6.4568 13.6258 9.00866 13.6209C11.5605 13.616 13.6264 11.5433 13.6215 8.99094C13.6167 6.43854 11.5432 4.37358 8.99102 4.37862C6.4388 4.38366 4.37401 6.4569 4.37887 9.00894ZM5.99995 9.0057C5.99878 8.41235 6.17358 7.83197 6.50226 7.33796C6.83093 6.84396 7.29871 6.4585 7.84645 6.23035C8.39419 6.0022 8.99728 5.9416 9.57947 6.0562C10.1616 6.17081 10.6968 6.45548 11.1172 6.87421C11.5376 7.29294 11.8243 7.82694 11.9413 8.40866C12.0582 8.99038 12 9.59371 11.774 10.1424C11.548 10.691 11.1644 11.1603 10.6717 11.4909C10.179 11.8215 9.59931 11.9986 9.00596 11.9998C8.61197 12.0007 8.22168 11.9239 7.85737 11.7738C7.49307 11.6238 7.16189 11.4035 6.88275 11.1254C6.6036 10.8474 6.38197 10.5171 6.2305 10.1534C6.07903 9.78967 6.00069 9.39969 5.99995 9.0057Z" fill="var(--fill-0, #E5E6E3)"/>
</svg>
