<svg preserveAspectRatio="none" width="100%" height="100%" overflow="visible" style="display: block;" viewBox="0 0 24 24" fill="none" xmlns="http://www.w3.org/2000/svg">
<g id="soundcloud">
<path id="Vector" d="M23.9918 14.5512C23.8909 16.3488 22.3908 17.7472 20.5906 17.722H12.4155C12.0411 17.7186 11.7389 17.415 11.7372 17.0405V8.23828C11.725 7.9291 11.9043 7.64429 12.1883 7.52155C12.1883 7.52155 12.9402 7 14.5241 7C15.4916 6.99885 16.4414 7.25979 17.2726 7.75513C18.5842 8.52678 19.5125 9.81256 19.8323 11.3003C20.1144 11.2205 20.4062 11.1807 20.6994 11.182C21.5877 11.1764 22.4402 11.5321 23.0611 12.1674C23.6819 12.8028 24.0179 13.6632 23.9918 14.5512ZM10.7165 8.795C10.9628 11.7803 11.142 14.5032 10.7165 17.4789C10.7016 17.6135 10.5879 17.7153 10.4525 17.7153C10.3171 17.7153 10.2034 17.6135 10.1885 17.4789C9.79177 14.5288 9.96455 11.7547 10.1885 8.795C10.1774 8.69375 10.2251 8.59504 10.3114 8.54092C10.3977 8.48679 10.5073 8.48679 10.5936 8.54092C10.6799 8.59504 10.7276 8.69375 10.7165 8.795ZM9.06225 17.4821C9.04146 17.618 8.92457 17.7184 8.78708 17.7184C8.64959 17.7184 8.53269 17.618 8.51191 17.4821C8.21594 14.9363 8.21594 12.3647 8.51191 9.8189C8.52713 9.67751 8.64647 9.57032 8.78868 9.57032C8.93088 9.57032 9.05022 9.67751 9.06545 9.8189C9.39396 12.3628 9.39288 14.9385 9.06225 17.4821ZM7.40483 9.55973C7.6736 12.2954 7.79518 14.7464 7.40162 17.4757C7.40162 17.6224 7.28273 17.7412 7.13605 17.7412C6.98938 17.7412 6.87048 17.6224 6.87048 17.4757C6.48972 14.7816 6.61771 12.2602 6.87048 9.55973C6.88542 9.42344 7.00055 9.32023 7.13765 9.32023C7.27476 9.32023 7.38989 9.42344 7.40483 9.55973ZM5.7442 17.4853C5.72917 17.6233 5.61264 17.7278 5.47383 17.7278C5.33503 17.7278 5.2185 17.6233 5.20346 17.4853C4.89788 15.1103 4.89788 12.7059 5.20346 10.3309C5.20346 10.1789 5.32666 10.0557 5.47863 10.0557C5.63061 10.0557 5.7538 10.1789 5.7538 10.3309C6.07858 12.7048 6.07535 15.1122 5.7442 17.4853ZM4.08678 12.1195C4.50593 13.9753 4.31716 15.6135 4.07078 17.5045C4.05081 17.6304 3.94227 17.723 3.81481 17.723C3.68735 17.723 3.5788 17.6304 3.55884 17.5045C3.33486 15.6391 3.14928 13.9625 3.54284 12.1195C3.54284 11.9693 3.6646 11.8475 3.81481 11.8475C3.96502 11.8475 4.08678 11.9693 4.08678 12.1195ZM2.43256 11.8379C2.81652 13.7385 2.69173 15.3479 2.42296 17.2549C2.39096 17.5365 1.90782 17.5397 1.88222 17.2549C1.63904 15.3767 1.52385 13.7193 1.87262 11.8379C1.88794 11.6948 2.00868 11.5863 2.15259 11.5863C2.29649 11.5863 2.41724 11.6948 2.43256 11.8379ZM0.762337 12.7594C1.16549 14.02 1.02791 15.044 0.746339 16.3366C0.731596 16.4695 0.619274 16.57 0.485566 16.57C0.351858 16.57 0.239539 16.4695 0.224796 16.3366C-0.0183782 15.0695 -0.117568 14.0232 0.202398 12.7594C0.217716 12.6163 0.338463 12.5078 0.482367 12.5078C0.626272 12.5078 0.747018 12.6163 0.762337 12.7594Z" fill="var(--fill-0, #E5E6E3)"/>
</g>
</svg>
